<svg xmlns="http://www.w3.org/2000/svg" viewBox="-184 254 242 233"><path fill="#15244a" d="M-22.667 347.115-63 370.394l-40.333-23.279L-63 323.836l40.333 23.279zm40.334 23.279v46.558L58 393.673l-40.333-23.279zm-201.626 23.279 40.333 23.279v-46.558l-40.333 23.279zM-63 463.509l40.333 23.279 40.333-23.279-40.333-23.279 40.333-23.279-40.333-23.278L-63 416.952l-40.333-23.279-40.333 23.279 40.333 23.279-40.333 23.279 40.333 23.279L-63 463.509z"/><linearGradient id="a" x1="-124.572" x2="39.119" y1="507.321" y2="413.338" gradientTransform="matrix(1 0 0 -1 0 796)" gradientUnits="userSpaceOnUse"><stop offset="0" stop-color="#1c68ec"/><stop offset="1" stop-color="#00e9df"/></linearGradient><path fill="url(#a)" d="M17.625 416.952v46.558l-40.333-23.279 40.333-23.279zm-80.625 0v-46.558l-40.333-23.279v46.558L-63 416.952zM-103.333 254v46.558L-63 277.279-103.333 254zm80.666 139.673 40.333 23.279v-46.558L58 393.673v-46.558l-40.333-23.279v-46.558L-22.667 254v46.558L-63 277.279v46.558l40.333 23.279v46.557z"/><linearGradient id="b" x1="-178.125" x2="-23.767" y1="492.008" y2="403.009" gradientTransform="matrix(1 0 0 -1 0 796)" gradientUnits="userSpaceOnUse"><stop offset="0" stop-color="#ff3c2a"/><stop offset="1" stop-color="#ffd215"/></linearGradient><path fill="url(#b)" d="M-63 416.952v-46.558l40.333-23.279v46.558L-63 416.952zm0-139.673 40.333 23.279V254L-63 277.279zm-40.333 69.836L-63 323.836v-46.558l-40.333 23.279V254l-40.333 23.279v46.558L-184 347.115v46.558l40.333-23.279v46.558l40.333-23.279.001-46.558zm-40.292 69.837v46.558l40.333-23.279-40.333-23.279z"/></svg>