<svg xmlns="http://www.w3.org/2000/svg" xml:space="preserve" style="enable-background:new 0 0 637.5 720" viewBox="0 0 637.5 720"><switch><g><path d="m346.6 128.8 114 65.8c4.1 2.3 4.2 8.8 0 11l-135.5 78.2c-4.1 2.4-8.9 2.2-12.8 0l-135.4-78.2c-4.1-2.3-4.3-8.8 0-11l113.9-65.8V0L0 167.9v335.8-1.5 1.5l111.6-64.4V307.7c-.1-4.7 5.5-8 9.6-5.5l135.5 78.2c4.1 2.4 6.4 6.7 6.4 11.1v156.4c.1 4.7-5.4 8-9.5 5.5l-114-65.8-111.7 64.5L318.7 720l290.8-167.9L498 487.7l-114 65.8c-4 2.4-9.7-.7-9.5-5.5V391.6c0-4.7 2.6-8.9 6.4-11.1l135.4-78.2c4-2.5 9.7.7 9.6 5.5v131.6l111.6 64.4V167.9L346.6 0v128.8z" style="fill:#fff"/></g></switch></svg>